<svg width="60" height="24" viewBox="0 0 60 24" fill="none" xmlns="http://www.w3.org/2000/svg">
  <path d="M33.29 0C37.5864 0 41.3743 2.22117 43.5225 5.55859L38.2197 8.89551C37.1891 7.28832 35.3636 6.2207 33.29 6.2207C30.0618 6.22093 27.4424 8.80996 27.4424 12C27.4424 15.19 30.0618 17.7791 33.29 17.7793C34.7677 17.7793 36.1217 17.2394 37.1523 16.3438L34.1348 12.9697H44.0684V23.7422H43.6963L41.2871 21.0186C39.1514 22.8712 36.3452 23.9999 33.2783 24C28.7585 24 24.797 21.5455 22.7109 17.9014C20.6249 21.5333 16.6758 24 12.1436 24C5.4509 23.9998 0 18.6133 0 12C1.94151e-07 5.38665 5.4509 0.000242201 12.1436 0C16.6758 0 20.6375 2.46673 22.7236 6.09863C24.8097 2.46685 28.7579 0.000156835 33.29 0ZM52.3379 17.5215H60V23.7432H46.043V3.97559L52.3379 0.0117188V17.5215ZM12.1436 6.2334C8.91529 6.23364 6.2959 8.82266 6.2959 12.0127C6.29613 15.2025 8.91544 17.7908 12.1436 17.791C15.372 17.791 18.0049 15.1902 18.0049 12C18.0049 8.80982 15.372 6.2334 12.1436 6.2334Z" fill="#414042"/>
</svg>
