<svg width="274" height="24" viewBox="0 0 274 24" fill="none" xmlns="http://www.w3.org/2000/svg">
<g clip-path="url(#clip0_31_239)">
<path d="M2.10254 14.3332C2.65288 15.3583 3.29316 16.3326 4.01562 17.2443L4.33105 17.6447C6.82588 20.6044 9.45869 22.6669 13.8379 24.0002L0 23.9601V19.2795C0.575795 17.5806 1.27848 15.9271 2.10254 14.3332ZM23.7559 20.9289C23.7557 24.0754 20.9716 24.0011 20.9404 24.0002H20.7617C12.867 24.0001 5.73418 18.6353 2.85156 12.9777C3.98239 10.9126 5.49932 9.08201 7.32031 7.58612C10.9959 4.4086 16.1284 2.22195 23.6396 1.51971C23.6791 1.51508 23.7184 1.50642 23.7559 1.49335V20.9289ZM132.479 8.07538C134.979 8.07538 136.903 9.09782 136.903 11.9777V19.1115C135.532 19.699 134.047 19.9761 132.556 19.924L132.25 19.9025C129.15 19.8222 127.686 18.5063 127.686 16.4357C127.686 13.4137 130.858 12.5953 134.632 12.2619V11.6135C134.632 10.0713 133.576 9.6086 132.034 9.60858C130.981 9.62235 129.941 9.84344 128.974 10.258L128.416 8.88885C129.704 8.35608 131.085 8.07964 132.479 8.07538ZM179.551 8.06659C182.055 8.06668 183.979 9.08911 183.979 11.9689V19.1115C182.608 19.6991 181.122 19.9762 179.631 19.924L179.325 19.9025C176.225 19.8221 174.757 18.5063 174.757 16.4357C174.757 13.4137 177.934 12.5953 181.707 12.2619V11.6135C181.707 10.0713 180.651 9.60858 179.109 9.60858C178.057 9.62235 177.016 9.84343 176.049 10.258L175.491 8.88885C176.777 8.35359 178.157 8.07423 179.551 8.06659ZM217.024 8.07538C219.528 8.07538 221.453 9.09782 221.453 11.9777V19.1115C220.082 19.6991 218.596 19.9762 217.104 19.924L216.79 19.9025C213.686 19.8222 212.226 18.5063 212.226 16.4357C212.226 13.4137 215.403 12.5953 219.177 12.2619V11.6135C219.177 10.0713 218.116 9.60858 216.574 9.60858C215.521 9.62238 214.481 9.84341 213.514 10.258L212.966 8.88885C214.252 8.35603 215.631 8.07952 217.024 8.07538ZM262.037 8.06659C263.07 8.01322 264.091 8.30261 264.941 8.88885L264.402 10.2219C263.879 9.86107 263.256 9.67148 262.62 9.67987C260.66 9.68038 259.64 11.3737 259.64 13.8976C259.64 16.4217 260.812 18.16 262.585 18.1603C263.224 18.1649 263.849 17.9649 264.367 17.591L264.96 19.1115C264.461 19.5292 263.476 19.9289 262.037 19.9289L261.778 19.8996C259.131 19.7633 257.136 17.5337 257.136 13.9738C257.136 10.2985 259.311 8.06683 262.037 8.06659ZM239.822 8.06659C240.926 8.04875 242.014 8.33336 242.968 8.88885L242.335 10.2844C241.727 9.87462 241.011 9.65033 240.277 9.63983C239.026 9.64001 238.254 10.3915 238.254 11.2492C238.254 13.7553 243.298 12.6447 243.298 16.4045C243.298 18.1821 241.582 19.9151 238.892 19.9152L238.448 19.9016C237.416 19.8574 236.403 19.5886 235.483 19.1115L236.134 17.5471C236.876 17.9911 237.727 18.2214 238.593 18.2131C239.827 18.2131 240.82 17.422 240.82 16.4621C240.82 13.7957 235.875 15.0397 235.875 11.3644C235.875 9.69353 237.377 8.0669 239.822 8.06659ZM270.507 8.07538C271.616 8.05002 272.711 8.33177 273.67 8.88885L273.037 10.2844C272.428 9.87251 271.71 9.64814 270.975 9.63983C269.727 9.64001 268.956 10.3915 268.956 11.2492C268.957 13.7553 274 12.6447 274 16.4045C274 18.1822 272.284 19.9152 269.593 19.9152L269.149 19.9016C268.117 19.8573 267.104 19.5886 266.185 19.1115L266.817 17.5685C267.562 18.0087 268.415 18.2348 269.281 18.2219C270.515 18.2219 271.509 17.4308 271.509 16.4709C271.508 13.8046 266.564 15.0484 266.563 11.3732C266.564 9.70231 268.066 8.07558 270.507 8.07538ZM199.613 4.94647C200.819 4.92347 202.011 5.20986 203.074 5.77753L202.46 7.34198C201.688 6.91442 200.821 6.68582 199.938 6.67596C198.379 6.67614 197.358 7.61372 197.358 8.95135C197.359 12.0619 203.48 10.7025 203.48 15.4621C203.48 18.0131 201.381 19.9064 198.437 19.9064C197.084 19.9563 195.738 19.6841 194.512 19.1115L195.185 17.3332C196.039 17.7816 196.99 18.0185 197.955 18.0226C199.63 18.0226 200.825 17.0395 200.825 15.6174C200.825 12.4669 194.837 13.6796 194.837 9.20917C194.837 6.92931 196.686 4.94668 199.613 4.94647ZM156.329 8.06659C159.773 8.06659 161.471 10.6355 161.471 13.9953C161.471 17.3552 159.777 19.9064 156.329 19.9064C152.885 19.9062 151.174 17.355 151.174 13.9953C151.174 10.6356 152.886 8.06683 156.329 8.06659ZM142.598 8.36053H144.799V9.81757H142.571V16.6887C142.555 16.879 142.577 17.0713 142.636 17.2531C142.694 17.4348 142.789 17.603 142.913 17.7482C143.037 17.8935 143.189 18.0132 143.359 18.0998C143.53 18.1863 143.717 18.2384 143.907 18.2531H144.13C144.35 18.2484 144.57 18.2146 144.781 18.1516V19.631C144.356 19.796 143.901 19.8751 143.444 19.8625L143.244 19.8576C141.041 19.7664 140.192 18.2901 140.191 16.8137V9.81757H138.61V8.36053H140.191V5.83124L142.598 5.16425V8.36053ZM208.72 8.36053H210.912V9.81757H208.72V16.6887C208.705 16.8789 208.727 17.0706 208.786 17.2521C208.845 17.4336 208.939 17.602 209.063 17.7473C209.187 17.8923 209.339 18.0121 209.509 18.0988C209.679 18.1856 209.866 18.2379 210.057 18.2531H210.271C210.491 18.2506 210.71 18.2167 210.921 18.1516V19.631C210.495 19.7961 210.04 19.8751 209.584 19.8625C207.219 19.8623 206.314 18.3378 206.313 16.8137V9.81757H204.736V8.36053H206.313V5.83124L208.72 5.16425V8.36053ZM227.125 8.36053H229.316V9.81757H227.125V16.6887C227.109 16.879 227.131 17.0713 227.189 17.2531C227.248 17.4347 227.343 17.603 227.467 17.7482C227.591 17.8934 227.743 18.0132 227.913 18.0998C228.084 18.1863 228.27 18.2384 228.461 18.2531H228.685C228.905 18.2484 229.124 18.2145 229.335 18.1516V19.631C228.909 19.796 228.454 19.8751 227.998 19.8625L227.775 19.8576C225.568 19.7665 224.719 18.2901 224.719 16.8137V9.81757H223.142V8.36053H224.719V5.83124L227.125 5.16425V8.36053ZM248.555 8.36053H250.751V9.81757H248.555V16.6887C248.539 16.8789 248.562 17.0706 248.621 17.2521C248.68 17.4337 248.774 17.602 248.898 17.7473C249.022 17.8924 249.174 18.012 249.345 18.0988C249.515 18.1855 249.701 18.2379 249.892 18.2531H250.105C250.327 18.248 250.548 18.2142 250.761 18.1516V19.631C250.335 19.7957 249.88 19.8747 249.424 19.8625C247.059 19.8623 246.15 18.3378 246.149 16.8137V9.81757H244.572V8.36053H246.149V5.83124L248.555 5.16425V8.36053ZM67.124 8.00018C68.1014 7.94188 69.0702 8.21456 69.873 8.77362L69.4277 9.77362C68.8536 9.37296 68.1674 9.16144 67.4668 9.16913C65.1728 9.1695 64.0011 11.1513 64.001 13.8264C64.001 16.5816 65.3377 18.5468 67.4092 18.5471C68.1218 18.5482 68.8186 18.3354 69.4092 17.9377L69.8555 19.0266C69.0296 19.5824 68.0425 19.8524 67.0479 19.7951L66.8174 19.7668C64.2662 19.6287 62.3301 17.3665 62.3301 13.8664C62.3302 10.2535 64.3887 8.00043 67.124 8.00018ZM36.5332 4.88885C40.583 4.88885 42.37 8.27105 42.3701 12.342C42.3701 16.413 40.5875 19.7951 36.5332 19.7951L36.1611 19.7639C32.3817 19.564 30.6838 16.3069 30.6836 12.3205C30.6836 8.20523 32.4838 4.88925 36.5332 4.88885ZM96.8057 8.00018C100.134 8.00025 101.64 10.587 101.64 13.9113C101.64 17.2355 100.138 19.795 96.8057 19.7951L96.499 19.7658C93.3841 19.6119 91.9542 17.1006 91.9541 13.8889C91.9541 10.5735 93.4778 8.00042 96.8057 8.00018ZM75.874 7.99139C78.6942 7.99139 80.4941 9.74671 80.4941 13.5021L72.5508 14.5558C72.7647 17.2219 74.2261 18.5556 76.5156 18.5558C77.5782 18.5785 78.6308 18.3413 79.5811 17.8664L80.0625 19.0178C78.9198 19.5584 77.6646 19.8217 76.4004 19.7863C73.2285 19.7861 70.9737 17.9061 70.9736 13.8576C70.9737 9.99587 73.0542 7.99172 75.874 7.99139ZM122.731 14.4982C123.049 14.9791 123.333 15.481 123.582 16.0002H123.618C123.618 16.0002 123.542 15.1821 123.542 14.3244V5.24432H125.641V19.6135H123.6L117.207 9.77753C116.904 9.3067 116.629 8.81858 116.383 8.31561H116.342C116.343 8.32845 116.4 9.15787 116.4 10.0266V19.6135H114.302V5.24432H116.668L122.731 14.4982ZM149.089 19.6135H146.665V8.36053H149.089V19.6135ZM167.939 8.07538C170.884 8.07538 172.841 9.07563 172.841 11.5422V19.6135H170.426V11.5558C170.426 10.1159 169.191 9.56854 167.806 9.56854C167.142 9.56262 166.482 9.67726 165.859 9.90643V19.5959H163.458V8.88885C164.886 8.3336 166.407 8.05725 167.939 8.07538ZM188.871 19.6135H186.465V3.22284H188.871V19.6135ZM233.634 19.6135H231.206V8.36053H233.634V19.6135ZM255.064 19.6135H252.641V8.36053H255.064V19.6135ZM49.3516 3.08905C49.5152 3.08905 49.7208 3.11011 49.7344 3.11151V4.15546H49.543C48.4072 4.15571 47.3869 4.88473 47.3867 6.43085V8.24921H49.7344V9.24921H47.3867V19.5021H45.752V9.24921H44.0762V8.24921H45.752V6.62225C45.752 4.57356 46.9638 3.08924 49.3516 3.08905ZM56.1104 3.08905C56.2741 3.08906 56.4798 3.11014 56.4932 3.11151V4.15546H56.3018C55.166 4.1557 54.1457 4.88472 54.1455 6.43085V8.24921H56.4932V9.24921H54.1455V19.5021H52.5107V9.24921H50.835V8.24921H52.5107V6.62225C52.5108 4.57356 53.7226 3.08924 56.1104 3.08905ZM60.0176 19.5021H58.3643V8.24921H60.0176V19.5021ZM90.4346 3.08905C90.6038 3.08907 90.8116 3.11041 90.8223 3.11151V4.15546H90.626C89.4946 4.15565 88.4699 4.88467 88.4697 6.43085V8.24921H90.8223V9.24921H88.4697V19.5021H86.834V9.24921H85.1592V8.24921H86.834V6.62225C86.834 4.57356 88.0468 3.08924 90.4346 3.08905ZM108.746 9.29315C107.704 9.0222 106.185 9.06244 105.472 9.50214V19.5021H103.81V8.75116C104.999 8.24905 106.198 7.97778 108.313 7.97772H109.156L108.746 9.29315ZM96.8057 9.12909C94.3422 9.12939 93.6289 11.6139 93.6289 13.9338C93.6291 16.2534 94.4003 18.6259 96.8057 18.6262C99.2112 18.6261 99.9823 16.2491 99.9824 13.9338C99.9824 11.6183 99.2694 9.12917 96.8057 9.12909ZM134.632 13.4045C131.843 13.7023 129.976 14.2225 129.976 16.3957C129.976 17.9153 131.054 18.5645 132.747 18.5646C133.395 18.5771 134.038 18.4489 134.632 18.1906V13.4045ZM181.707 13.4045C178.914 13.7023 177.047 14.2225 177.047 16.3957C177.047 17.9153 178.13 18.5645 179.822 18.5646C180.47 18.5771 181.113 18.4489 181.707 18.1906V13.4045ZM219.203 13.4045C216.41 13.7023 214.543 14.2225 214.543 16.3957C214.543 17.9153 215.622 18.5645 217.314 18.5646C217.964 18.579 218.608 18.4508 219.203 18.1906V13.4045ZM36.2598 6.06757C33.4881 6.26171 32.4923 9.40885 32.4922 12.3019C32.4922 15.2883 33.4552 18.4792 36.5332 18.4797C39.6118 18.4797 40.5429 15.2441 40.543 12.3019C40.5429 9.35984 39.5004 6.08026 36.5332 6.08026L36.2598 6.06757ZM156.329 9.60858C154.253 9.60892 153.634 11.7829 153.634 13.9738C153.634 16.1645 154.289 18.2528 156.329 18.2531C158.369 18.2531 159.024 16.1647 159.024 13.9738C159.024 11.7827 158.41 9.60858 156.329 9.60858ZM75.6553 9.04413C73.9042 9.13055 72.4573 10.5609 72.4746 13.6135L78.8857 12.7248C78.8857 10.1159 77.6341 9.02655 75.8252 9.02655L75.6553 9.04413ZM147.88 3.89276C148.23 3.89285 148.568 4.02312 148.828 4.258C149.088 4.49305 149.251 4.81606 149.285 5.16425C149.263 5.51559 149.103 5.84438 148.839 6.07831C148.575 6.31199 148.229 6.43271 147.877 6.41327C147.526 6.43128 147.181 6.31093 146.918 6.07733C146.655 5.84353 146.495 5.51473 146.474 5.16425C146.508 4.8162 146.671 4.49303 146.931 4.258C147.19 4.02297 147.529 3.89287 147.88 3.89276ZM232.42 3.89276C232.771 3.89276 233.109 4.02296 233.369 4.258C233.629 4.49303 233.791 4.81615 233.825 5.16425C233.803 5.51552 233.643 5.84439 233.38 6.07831C233.116 6.31203 232.77 6.43264 232.418 6.41327C232.067 6.43137 231.722 6.31082 231.459 6.07733C231.196 5.84353 231.037 5.51473 231.015 5.16425C231.049 4.81632 231.211 4.493 231.471 4.258C231.73 4.02298 232.069 3.89288 232.42 3.89276ZM253.854 3.89276C254.205 3.89276 254.544 4.02296 254.804 4.258C255.063 4.49306 255.227 4.81608 255.261 5.16425C255.239 5.51556 255.078 5.84439 254.814 6.07831C254.551 6.31207 254.205 6.43269 253.853 6.41327C253.501 6.43137 253.156 6.31087 252.894 6.07733C252.631 5.84353 252.471 5.51473 252.449 5.16425C252.483 4.81635 252.646 4.493 252.905 4.258C253.165 4.02302 253.504 3.89292 253.854 3.89276ZM59.1914 4.13495C59.456 4.135 59.7112 4.23582 59.9043 4.4162C60.0972 4.59664 60.2141 4.8434 60.2314 5.10663C60.2303 5.23964 60.2025 5.37188 60.1504 5.49432C60.0983 5.61644 60.0226 5.72746 59.9277 5.8205C59.8328 5.9135 59.7201 5.98751 59.5967 6.03729C59.4732 6.08699 59.3402 6.11265 59.207 6.11151L59.0889 6.09491C58.9898 6.0873 58.8918 6.06547 58.7988 6.02948C58.6746 5.98126 58.5602 5.90855 58.4639 5.81659C58.3677 5.72469 58.29 5.61492 58.2363 5.49335C58.1826 5.37156 58.1543 5.23965 58.1514 5.10663C58.1687 4.84346 58.2857 4.59662 58.4785 4.4162C58.6716 4.23579 58.9269 4.13506 59.1914 4.13495Z" fill="#003C57"/>
<path d="M0 14.0443C0.356429 13.2932 0.619295 12.711 1.03364 11.9999C0.600063 11.0556 0.254071 10.0737 0 9.06656L0 14.0443ZM2.22768 0C2.22768 0 0 0 0 2.77774V3.22218C0.273265 5.77844 0.903099 8.28409 1.87125 10.6665C2.99677 8.849 4.41473 7.22881 6.0682 5.87104C9.66367 2.75997 13.8829 0.946655 20.4501 0H2.22768Z" fill="#A8BD3A"/>
</g>
<defs>
<clipPath id="clip0_31_239">
<rect width="274" height="24" fill="white"/>
</clipPath>
</defs>
</svg>
