<svg width="164" height="32" viewBox="0 0 164 32" fill="none" xmlns="http://www.w3.org/2000/svg">
<g clip-path="url(#clip0_34_115)">
<path d="M44.2034 14.291C41.0981 14.291 39.7236 11.7283 39.7236 8.56571C39.7236 5.40312 41.1095 2.8404 44.2034 2.8404C47.2973 2.8404 48.6702 5.43748 48.6702 8.56571C48.6702 11.6939 47.2958 14.291 44.2034 14.291ZM44.2034 3.7395C41.917 3.7395 41.0981 6.24495 41.0981 8.54137C41.0981 10.8378 41.8483 13.286 44.2034 13.286C46.5585 13.286 47.2858 10.8034 47.2858 8.54137C47.2858 6.27931 46.4898 3.7395 44.2034 3.7395Z" fill="#003C57"/>
<path d="M52.5143 14.0949H51.2559V6.22204H49.9745V5.44893H51.2559V4.20193C51.2559 2.63138 52.1793 1.48889 54.0147 1.48889C54.1421 1.48889 54.3154 1.50035 54.3154 1.50035V2.29636H54.165C53.2874 2.29636 52.5143 2.86188 52.5143 4.04015V5.44893H54.3154V6.21059H52.5143V14.0949Z" fill="#003C57"/>
<path d="M57.6984 14.0949H56.44V6.22204H55.1586V5.44893H56.44V4.20193C56.44 2.63138 57.3634 1.48889 59.1988 1.48889C59.3263 1.48889 59.4995 1.50035 59.4995 1.50035V2.29636H59.3492C58.4715 2.29636 57.6984 2.86188 57.6984 4.04015V5.44893H59.4995V6.21059H57.6984V14.0949Z" fill="#003C57"/>
<path d="M61.5654 3.78532C61.1388 3.79677 60.7809 3.46175 60.7694 3.03511V3.02366C60.7694 2.58556 61.1273 2.22764 61.5654 2.22764C62.0035 2.22764 62.3614 2.58556 62.3614 3.02366C62.3614 3.46175 62.0035 3.79677 61.5769 3.79677H61.5654V3.78532ZM60.9312 14.082V5.43605H62.2011V14.082H60.9312Z" fill="#003C57"/>
<path d="M67.6028 14.291C65.5484 14.291 63.9778 12.5243 63.9778 9.75401C63.9778 6.9837 65.5598 5.23991 67.6486 5.23991C68.6995 5.23991 69.3924 5.51765 69.7618 5.82833L69.4383 6.60144C69.0002 6.28933 68.469 6.12755 67.9379 6.13901C66.1826 6.13901 65.2821 7.66232 65.2821 9.71822C65.2821 11.7741 66.31 13.3432 67.8906 13.3432C68.4332 13.3432 68.9758 13.1815 69.4254 12.8694L69.7718 13.7126C69.3796 14.0018 68.6408 14.2896 67.6014 14.2896L67.6028 14.291Z" fill="#003C57"/>
<path d="M71.8048 10.2852C71.9666 12.3167 73.0862 13.3447 74.8414 13.3447C75.6489 13.3561 76.4578 13.1829 77.1851 12.8135L77.5545 13.6911C76.6768 14.1063 75.7191 14.3139 74.7498 14.2796C72.3145 14.2796 70.5936 12.8364 70.5936 9.71965C70.5936 6.60287 72.1871 5.20555 74.3575 5.20555C76.528 5.20555 77.9009 6.55563 77.9009 9.4419L71.8063 10.2852H71.8048ZM74.3103 6.04881C72.9015 6.04881 71.7247 7.13403 71.7476 9.55787L76.6539 8.88784C76.6539 6.87919 75.6961 6.04738 74.3103 6.04738V6.04881Z" fill="#003C57"/>
<path d="M85.9241 14.0949H84.6657V6.22204H83.3843V5.44893H84.6657V4.20193C84.6657 2.63138 85.6005 1.48889 87.4245 1.48889C87.5519 1.48889 87.7023 1.50035 87.7023 1.50035V2.29636H87.5519C86.6858 2.29636 85.9012 2.86188 85.9012 4.04015V5.44893H87.7023V6.21059H85.9241V14.0949Z" fill="#003C57"/>
<path d="M92.308 14.291C89.7682 14.291 88.5913 12.3167 88.5913 9.77692C88.5913 7.23711 89.7567 5.23991 92.308 5.23991C94.8593 5.23991 96.0132 7.2142 96.0132 9.77692C96.0132 12.3396 94.8593 14.291 92.308 14.291ZM92.308 6.08317C90.4153 6.08317 89.8727 7.98731 89.8727 9.77692C89.8727 11.5665 90.4611 13.379 92.308 13.379C94.1549 13.379 94.7433 11.5551 94.7433 9.77692C94.7433 7.99876 94.1892 6.08317 92.308 6.08317Z" fill="#003C57"/>
<path d="M101.451 6.24495C100.655 6.03736 99.4764 6.07172 98.9453 6.40673V14.0949H97.6754V5.82976C98.5873 5.44893 99.5108 5.24134 101.127 5.24134C101.346 5.24134 101.647 5.24134 101.774 5.25279L101.451 6.24495Z" fill="#003C57"/>
<path d="M47.0424 31.5729L42.1475 24.0236C41.917 23.6657 41.6979 23.2849 41.5132 22.8926H41.4903C41.4903 22.8926 41.5362 23.5268 41.5362 24.2083V31.5729H39.9312V20.536H41.7437L46.3967 27.6357C46.6387 27.9937 46.8591 28.3745 47.0438 28.7668H47.0667C47.0667 28.7668 47.0095 28.144 47.0095 27.4854V20.5475H48.6144V31.5843H47.0438V31.5729H47.0424Z" fill="#003C57"/>
<path d="M53.9002 31.8034C51.3604 31.8034 50.1721 30.7869 50.1721 29.1362C50.1721 26.8154 52.6074 26.1812 55.4936 25.9263V25.4295C55.4936 24.2398 54.6862 23.8948 53.5079 23.8948C52.7004 23.9062 51.903 24.0795 51.1642 24.3916L50.7376 23.3292C51.7183 22.9255 52.7806 22.7065 53.8429 22.7065C55.7599 22.7065 57.226 23.491 57.226 25.7073V31.1792C56.5101 31.5485 55.3447 31.802 53.9016 31.802L53.9002 31.8034ZM55.5051 26.7939C53.369 27.0244 51.9373 27.4167 51.9373 29.0918C51.9373 30.2572 52.7691 30.754 54.062 30.754C54.5587 30.7654 55.0541 30.6738 55.5051 30.4762V26.7939Z" fill="#003C57"/>
<path d="M62.2584 31.769C60.4459 31.769 59.7529 30.6036 59.7529 29.4254V24.0694H58.5403V22.9384H59.7529V20.9985L61.5998 20.4902V22.9484H63.2963V24.0794H61.5883V29.3552C61.5311 29.9665 61.9806 30.4977 62.5934 30.5564H62.7666C62.9398 30.5564 63.1016 30.522 63.2749 30.4762V31.6072C62.9513 31.7118 62.6048 31.7805 62.2584 31.769Z" fill="#003C57"/>
<path d="M65.6515 21.4366C65.1203 21.3793 64.7395 20.8939 64.7967 20.3628C64.854 19.8316 65.3393 19.4508 65.8705 19.5081C66.3558 19.5653 66.7367 19.982 66.7367 20.4659C66.6909 21.0428 66.2055 21.4709 65.6515 21.4351V21.4366ZM64.7166 31.5729V22.9269H66.5749V31.5729H64.7166Z" fill="#003C57"/>
<path d="M72.1284 31.8034C69.4855 31.8034 68.1798 29.8405 68.1798 27.2664C68.1798 24.6922 69.4955 22.7065 72.1284 22.7065C74.7613 22.7065 76.0655 24.6808 76.0655 27.2664C76.0655 29.8405 74.7613 31.8034 72.1284 31.8034ZM72.1284 23.9076C70.5349 23.9076 70.0625 25.5698 70.0625 27.2664C70.0625 28.9629 70.5593 30.5564 72.1284 30.5564C73.6975 30.5564 74.1943 28.9515 74.1943 27.2664C74.1829 25.5698 73.7204 23.8962 72.1284 23.9076Z" fill="#003C57"/>
<path d="M82.9219 31.5729V25.4081C82.9219 24.2999 81.9755 23.8847 80.9132 23.8847C80.405 23.8733 79.8967 23.9649 79.4243 24.1381V31.5843H77.5774V23.3307C78.6741 22.904 79.8395 22.6836 81.0177 22.7079C83.2798 22.7079 84.7816 23.481 84.7816 25.3637V31.5743H82.9233L82.9219 31.5729Z" fill="#003C57"/>
<path d="M89.9758 31.8034C87.436 31.8034 86.2477 30.7869 86.2477 29.1362C86.2477 26.8154 88.683 26.1812 91.5692 25.9263V25.4295C91.5692 24.2398 90.7618 23.8948 89.5835 23.8948C88.776 23.9062 87.9786 24.0795 87.2398 24.3916L86.8132 23.3292C87.7939 22.9255 88.8562 22.7065 89.9185 22.7065C91.8355 22.7065 93.3016 23.491 93.3016 25.7073V31.1792C92.5743 31.5485 91.4089 31.802 89.9772 31.802L89.9758 31.8034ZM91.5692 26.7939C89.4332 27.0244 88.0015 27.4167 88.0015 29.0918C88.0015 30.2572 88.8333 30.754 90.1261 30.754C90.6229 30.7654 91.1183 30.6738 91.5692 30.4762V26.7939Z" fill="#003C57"/>
<path d="M95.2172 18.9898H97.064V31.5843H95.2172V18.9898Z" fill="#003C57"/>
<path d="M105.837 31.8034C104.798 31.8377 103.771 31.6187 102.824 31.1806L103.343 29.8305C104.002 30.177 104.729 30.3617 105.468 30.3617C106.749 30.3617 107.661 29.6115 107.661 28.5148C107.661 26.091 103.079 27.0259 103.079 23.5855C103.079 21.8303 104.487 20.3184 106.749 20.3184C107.673 20.2955 108.585 20.5146 109.405 20.9412L108.931 22.1424C108.343 21.8188 107.673 21.6341 107.003 21.6341C105.802 21.6341 105.028 22.3614 105.028 23.3894C105.028 25.7674 109.716 24.7395 109.716 28.3874C109.693 30.3388 108.088 31.8048 105.837 31.8048V31.8034Z" fill="#003C57"/>
<path d="M114.38 31.769C112.568 31.769 111.875 30.6036 111.875 29.4254V24.0694H110.662V22.9384H111.875V20.9985L113.722 20.4902V22.9484H115.418V24.0794H113.722V29.3552C113.664 29.9665 114.114 30.4977 114.727 30.5564H114.9C115.073 30.5564 115.235 30.522 115.408 30.4762V31.6072C115.073 31.7118 114.727 31.7805 114.38 31.769Z" fill="#003C57"/>
<path d="M120.128 31.8034C117.589 31.8034 116.4 30.7869 116.4 29.1362C116.4 26.8154 118.836 26.1812 121.722 25.9263V25.4295C121.722 24.2398 120.914 23.8948 119.736 23.8948C118.929 23.9062 118.131 24.0795 117.393 24.3916L116.966 23.3292C117.947 22.9255 119.009 22.7065 120.071 22.7065C121.988 22.7065 123.454 23.491 123.454 25.7073V31.1792C122.727 31.5485 121.562 31.802 120.13 31.802L120.128 31.8034ZM121.722 26.7939C119.586 27.0244 118.154 27.4167 118.154 29.0918C118.154 30.2572 118.973 30.754 120.279 30.754C120.776 30.7654 121.271 30.6738 121.722 30.4762V26.7939Z" fill="#003C57"/>
<path d="M128.464 31.769C126.651 31.769 125.958 30.6036 125.958 29.4254V24.0694H124.746V22.9384H125.958V20.9985L127.805 20.4902V22.9484H129.502V24.0794H127.805V29.3552C127.759 29.9665 128.209 30.4977 128.822 30.5564H128.983C129.157 30.5564 129.318 30.5335 129.48 30.4762V31.6072C129.157 31.7232 128.81 31.7805 128.464 31.769Z" fill="#003C57"/>
<path d="M131.868 21.4366C131.337 21.3793 130.956 20.8939 131.014 20.3628C131.071 19.8316 131.556 19.4508 132.087 19.5081C132.573 19.5653 132.942 19.982 132.942 20.4659C132.908 21.0428 132.434 21.4709 131.868 21.4351V21.4366ZM130.945 31.5729V22.9269H132.803V31.5729H130.945Z" fill="#003C57"/>
<path d="M136.833 31.8034C135.921 31.8148 135.021 31.6072 134.225 31.1806L134.71 29.9909C135.276 30.3373 135.934 30.5106 136.603 30.4991C137.549 30.4991 138.299 29.8878 138.299 29.149C138.299 27.0946 134.513 28.0524 134.513 25.2363C134.513 23.9549 135.667 22.6964 137.538 22.6964C138.392 22.6735 139.234 22.8926 139.973 23.3192L139.488 24.393C139.025 24.0809 138.471 23.9076 137.906 23.8962C136.948 23.8962 136.359 24.4617 136.359 25.1317C136.359 27.0602 140.226 26.2055 140.226 29.0803C140.204 30.4891 138.911 31.8048 136.832 31.8048L136.833 31.8034Z" fill="#003C57"/>
<path d="M144.902 31.769C143.09 31.769 142.397 30.6036 142.397 29.4254V24.0694H141.184V22.9384H142.397V20.9985L144.244 20.4902V22.9484H145.94V24.0794H144.244V29.3552C144.187 29.9665 144.636 30.4977 145.249 30.5564H145.422C145.595 30.5564 145.757 30.522 145.93 30.4762V31.6072C145.595 31.7118 145.249 31.7805 144.902 31.769Z" fill="#003C57"/>
<path d="M148.297 21.4366C147.766 21.3793 147.385 20.8939 147.442 20.3628C147.499 19.8316 147.985 19.4508 148.516 19.5081C149.001 19.5653 149.371 19.982 149.371 20.4659C149.336 21.0428 148.851 21.4709 148.297 21.4351V21.4366ZM147.373 31.5729V22.9269H149.232V31.5729H147.373Z" fill="#003C57"/>
<path d="M154.565 31.8034C152.44 31.8034 150.812 30.0725 150.812 27.2435C150.812 24.4145 152.475 22.7065 154.576 22.7065C155.361 22.6721 156.147 22.8911 156.793 23.3292L156.377 24.3686C155.985 24.0909 155.5 23.942 155.016 23.9535C153.515 23.9535 152.729 25.2463 152.729 27.1977C152.729 29.149 153.63 30.4762 154.991 30.4762C155.477 30.4762 155.949 30.3259 156.353 30.0381L156.815 31.1691C156.423 31.5042 155.661 31.8034 154.565 31.8034Z" fill="#003C57"/>
<path d="M160.244 31.8034C159.332 31.8148 158.443 31.5958 157.636 31.1806L158.121 29.9909C158.687 30.3373 159.345 30.5106 160.014 30.4991C160.96 30.4991 161.71 29.8878 161.71 29.149C161.71 27.0946 157.924 28.0524 157.924 25.2363C157.924 23.9549 159.066 22.6964 160.949 22.6964C161.803 22.6735 162.645 22.8926 163.384 23.3192L162.899 24.393C162.436 24.0809 161.882 23.9076 161.317 23.8962C160.359 23.8962 159.77 24.4617 159.77 25.1317C159.77 27.0602 163.637 26.2055 163.637 29.0803C163.614 30.4891 162.299 31.8048 160.243 31.8048L160.244 31.8034Z" fill="#003C57"/>
<path d="M31.8392 2.02004C21.7272 2.98929 14.8122 5.87556 9.85858 10.1119C7.25005 12.374 5.05671 15.0756 3.37019 18.1007C7.24862 25.6385 14.6605 31.1806 27.0016 31.9995H28.2028C28.2028 31.9995 32.001 32.1269 32.001 27.902V1.9957C31.9437 2.00715 31.8851 2.0186 31.8392 2.0186V2.02004ZM5.82982 23.5039C4.67588 22.1424 3.67084 20.6749 2.81612 19.1058C1.708 21.2304 0.77311 23.4352 0 25.6972V31.9881H20.2254C13.9217 30.4877 9.18855 27.451 5.82982 23.5025V23.5039Z" fill="#003C57"/>
<path d="M0 19.3936C0.485341 18.3886 0.992158 17.4079 1.54622 16.4615C0.911984 14.9267 0.392282 13.3447 0.0114537 11.7284C2.62405e-07 14.3598 0 17.1888 0 19.3936ZM2.98936 0C2.98936 0 0 8.19217e-07 0 3.7052V5.67949C0.253408 9.01532 0.980704 12.3053 2.17043 15.4336C3.84407 12.7549 5.91143 10.3539 8.28945 8.29948C13.1271 4.1433 19.6484 1.28136 28.492 0.0114537L2.99079 0H2.98936Z" fill="#A8BD3A"/>
</g>
<defs>
<clipPath id="clip0_34_115">
<rect width="164" height="32" fill="white"/>
</clipPath>
</defs>
</svg>
