<svg width="274" height="24" viewBox="0 0 274 24" fill="none" xmlns="http://www.w3.org/2000/svg">
<g clip-path="url(#clip0_8155_2668)">
<path d="M2.10254 14.333C2.65288 15.3581 3.29316 16.3324 4.01562 17.2441L4.33105 17.6445C6.82588 20.6042 9.45869 22.6668 13.8379 24L0 23.96V19.2793C0.575795 17.5804 1.27848 15.9269 2.10254 14.333ZM23.7559 20.9287C23.7557 24.0752 20.9716 24.0009 20.9404 24H20.7617C12.867 23.9999 5.73418 18.6352 2.85156 12.9775C3.98239 10.9124 5.49932 9.08183 7.32031 7.58594C10.9959 4.40842 16.1284 2.22177 23.6396 1.51953C23.6791 1.5149 23.7184 1.50623 23.7559 1.49316V20.9287ZM132.479 8.0752C134.979 8.0752 136.903 9.09763 136.903 11.9775V19.1113C135.532 19.6988 134.047 19.976 132.556 19.9238L132.25 19.9023C129.15 19.822 127.686 18.5061 127.686 16.4355C127.686 13.4135 130.858 12.5951 134.632 12.2617V11.6133C134.632 10.0711 133.576 9.60842 132.034 9.6084C130.981 9.62216 129.941 9.84326 128.974 10.2578L128.416 8.88867C129.704 8.3559 131.085 8.07945 132.479 8.0752ZM179.551 8.06641C182.055 8.0665 183.979 9.08893 183.979 11.9688V19.1113C182.608 19.6989 181.122 19.976 179.631 19.9238L179.325 19.9023C176.225 19.822 174.757 18.5061 174.757 16.4355C174.757 13.4135 177.934 12.5951 181.707 12.2617V11.6133C181.707 10.0711 180.651 9.6084 179.109 9.6084C178.057 9.62216 177.016 9.84324 176.049 10.2578L175.491 8.88867C176.777 8.35341 178.157 8.07404 179.551 8.06641ZM217.024 8.0752C219.528 8.0752 221.453 9.09763 221.453 11.9775V19.1113C220.082 19.6989 218.596 19.976 217.104 19.9238L216.79 19.9023C213.686 19.822 212.226 18.5061 212.226 16.4355C212.226 13.4135 215.403 12.5951 219.177 12.2617V11.6133C219.177 10.0711 218.116 9.6084 216.574 9.6084C215.521 9.6222 214.481 9.84322 213.514 10.2578L212.966 8.88867C214.252 8.35585 215.631 8.07934 217.024 8.0752ZM262.037 8.06641C263.07 8.01304 264.091 8.30242 264.941 8.88867L264.402 10.2217C263.879 9.86089 263.256 9.6713 262.62 9.67969C260.66 9.6802 259.64 11.3735 259.64 13.8975C259.64 16.4216 260.812 18.1599 262.585 18.1602C263.224 18.1647 263.849 17.9648 264.367 17.5908L264.96 19.1113C264.461 19.529 263.476 19.9287 262.037 19.9287L261.778 19.8994C259.131 19.7631 257.136 17.5336 257.136 13.9736C257.136 10.2983 259.311 8.06665 262.037 8.06641ZM239.822 8.06641C240.926 8.04857 242.014 8.33318 242.968 8.88867L242.335 10.2842C241.727 9.87444 241.011 9.65015 240.277 9.63965C239.026 9.63983 238.254 10.3914 238.254 11.249C238.254 13.7551 243.298 12.6446 243.298 16.4043C243.298 18.1819 241.582 19.9149 238.892 19.915L238.448 19.9014C237.416 19.8572 236.403 19.5884 235.483 19.1113L236.134 17.5469C236.876 17.991 237.727 18.2212 238.593 18.2129C239.827 18.2129 240.82 17.4218 240.82 16.4619C240.82 13.7955 235.875 15.0395 235.875 11.3643C235.875 9.69335 237.377 8.06672 239.822 8.06641ZM270.507 8.0752C271.616 8.04983 272.711 8.33158 273.67 8.88867L273.037 10.2842C272.428 9.87232 271.71 9.64796 270.975 9.63965C269.727 9.63983 268.956 10.3914 268.956 11.249C268.957 13.7551 274 12.6445 274 16.4043C274 18.182 272.284 19.915 269.593 19.915L269.149 19.9014C268.117 19.8571 267.104 19.5885 266.185 19.1113L266.817 17.5684C267.562 18.0085 268.415 18.2346 269.281 18.2217C270.515 18.2217 271.509 17.4306 271.509 16.4707C271.508 13.8044 266.564 15.0482 266.563 11.373C266.564 9.70212 268.066 8.0754 270.507 8.0752ZM199.613 4.94629C200.819 4.92329 202.011 5.20968 203.074 5.77734L202.46 7.3418C201.688 6.91423 200.821 6.68563 199.938 6.67578C198.379 6.67596 197.358 7.61354 197.358 8.95117C197.359 12.0618 203.48 10.7023 203.48 15.4619C203.48 18.0129 201.381 19.9062 198.437 19.9062C197.084 19.9561 195.738 19.6839 194.512 19.1113L195.185 17.333C196.039 17.7814 196.99 18.0183 197.955 18.0225C199.63 18.0225 200.825 17.0393 200.825 15.6172C200.825 12.4667 194.837 13.6794 194.837 9.20898C194.837 6.92913 196.686 4.94649 199.613 4.94629ZM156.329 8.06641C159.773 8.06641 161.471 10.6353 161.471 13.9951C161.471 17.355 159.777 19.9062 156.329 19.9062C152.885 19.906 151.174 17.3548 151.174 13.9951C151.174 10.6355 152.886 8.06664 156.329 8.06641ZM142.598 8.36035H144.799V9.81738H142.571V16.6885C142.555 16.8788 142.577 17.0712 142.636 17.2529C142.694 17.4346 142.789 17.6028 142.913 17.748C143.037 17.8933 143.189 18.013 143.359 18.0996C143.53 18.1861 143.717 18.2383 143.907 18.2529H144.13C144.35 18.2482 144.57 18.2144 144.781 18.1514V19.6309C144.356 19.7959 143.901 19.8749 143.444 19.8623L143.244 19.8574C141.041 19.7663 140.192 18.2899 140.191 16.8135V9.81738H138.61V8.36035H140.191V5.83105L142.598 5.16406V8.36035ZM208.72 8.36035H210.912V9.81738H208.72V16.6885C208.705 16.8787 208.727 17.0704 208.786 17.252C208.845 17.4335 208.939 17.6019 209.063 17.7471C209.187 17.8921 209.339 18.0119 209.509 18.0986C209.679 18.1854 209.866 18.2377 210.057 18.2529H210.271C210.491 18.2504 210.71 18.2165 210.921 18.1514V19.6309C210.495 19.7959 210.04 19.8749 209.584 19.8623C207.219 19.8621 206.314 18.3376 206.313 16.8135V9.81738H204.736V8.36035H206.313V5.83105L208.72 5.16406V8.36035ZM227.125 8.36035H229.316V9.81738H227.125V16.6885C227.109 16.8788 227.131 17.0712 227.189 17.2529C227.248 17.4346 227.343 17.6028 227.467 17.748C227.591 17.8933 227.743 18.013 227.913 18.0996C228.084 18.1861 228.27 18.2383 228.461 18.2529H228.685C228.905 18.2482 229.124 18.2143 229.335 18.1514V19.6309C228.909 19.7959 228.454 19.8749 227.998 19.8623L227.775 19.8574C225.568 19.7663 224.719 18.2899 224.719 16.8135V9.81738H223.142V8.36035H224.719V5.83105L227.125 5.16406V8.36035ZM248.555 8.36035H250.751V9.81738H248.555V16.6885C248.539 16.8787 248.562 17.0704 248.621 17.252C248.68 17.4335 248.774 17.6018 248.898 17.7471C249.022 17.8923 249.174 18.0118 249.345 18.0986C249.515 18.1853 249.701 18.2377 249.892 18.2529H250.105C250.327 18.2479 250.548 18.2141 250.761 18.1514V19.6309C250.335 19.7955 249.88 19.8745 249.424 19.8623C247.059 19.8621 246.15 18.3376 246.149 16.8135V9.81738H244.572V8.36035H246.149V5.83105L248.555 5.16406V8.36035ZM67.124 8C68.1014 7.94169 69.0702 8.21438 69.873 8.77344L69.4277 9.77344C68.8536 9.37277 68.1674 9.16125 67.4668 9.16895C65.1728 9.16931 64.0011 11.1511 64.001 13.8262C64.001 16.5814 65.3377 18.5466 67.4092 18.5469C68.1218 18.548 68.8186 18.3352 69.4092 17.9375L69.8555 19.0264C69.0296 19.5822 68.0425 19.8522 67.0479 19.7949L66.8174 19.7666C64.2662 19.6285 62.3301 17.3664 62.3301 13.8662C62.3302 10.2533 64.3887 8.00025 67.124 8ZM36.5332 4.88867C40.583 4.88867 42.37 8.27086 42.3701 12.3418C42.3701 16.4128 40.5875 19.7949 36.5332 19.7949L36.1611 19.7637C32.3817 19.5638 30.6838 16.3068 30.6836 12.3203C30.6836 8.20505 32.4838 4.88907 36.5332 4.88867ZM96.8057 8C100.134 8.00006 101.64 10.5868 101.64 13.9111C101.64 17.2353 100.138 19.7949 96.8057 19.7949L96.499 19.7656C93.3841 19.6117 91.9542 17.1004 91.9541 13.8887C91.9541 10.5733 93.4778 8.00023 96.8057 8ZM75.874 7.99121C78.6942 7.99121 80.4941 9.74653 80.4941 13.502L72.5508 14.5557C72.7647 17.2218 74.2261 18.5554 76.5156 18.5557C77.5782 18.5783 78.6308 18.3411 79.5811 17.8662L80.0625 19.0176C78.9198 19.5582 77.6646 19.8215 76.4004 19.7861C73.2285 19.786 70.9737 17.9059 70.9736 13.8574C70.9737 9.99569 73.0542 7.99154 75.874 7.99121ZM122.731 14.498C123.049 14.979 123.333 15.4809 123.582 16H123.618C123.618 16 123.542 15.1819 123.542 14.3242V5.24414H125.641V19.6133H123.6L117.207 9.77734C116.904 9.30652 116.629 8.8184 116.383 8.31543H116.342C116.343 8.32826 116.4 9.15769 116.4 10.0264V19.6133H114.302V5.24414H116.668L122.731 14.498ZM149.089 19.6133H146.665V8.36035H149.089V19.6133ZM167.939 8.0752C170.884 8.0752 172.841 9.07545 172.841 11.542V19.6133H170.426V11.5557C170.426 10.1157 169.191 9.56836 167.806 9.56836C167.142 9.56244 166.482 9.67708 165.859 9.90625V19.5957H163.458V8.88867C164.886 8.33342 166.407 8.05706 167.939 8.0752ZM188.871 19.6133H186.465V3.22266H188.871V19.6133ZM233.634 19.6133H231.206V8.36035H233.634V19.6133ZM255.064 19.6133H252.641V8.36035H255.064V19.6133ZM49.3516 3.08887C49.5152 3.08887 49.7208 3.10993 49.7344 3.11133V4.15527H49.543C48.4072 4.15552 47.3869 4.88455 47.3867 6.43066V8.24902H49.7344V9.24902H47.3867V19.502H45.752V9.24902H44.0762V8.24902H45.752V6.62207C45.752 4.57338 46.9638 3.08905 49.3516 3.08887ZM56.1104 3.08887C56.2741 3.08887 56.4798 3.10995 56.4932 3.11133V4.15527H56.3018C55.166 4.15551 54.1457 4.88454 54.1455 6.43066V8.24902H56.4932V9.24902H54.1455V19.502H52.5107V9.24902H50.835V8.24902H52.5107V6.62207C52.5108 4.57338 53.7226 3.08905 56.1104 3.08887ZM60.0176 19.502H58.3643V8.24902H60.0176V19.502ZM90.4346 3.08887C90.6038 3.08888 90.8116 3.11022 90.8223 3.11133V4.15527H90.626C89.4946 4.15547 88.4699 4.88449 88.4697 6.43066V8.24902H90.8223V9.24902H88.4697V19.502H86.834V9.24902H85.1592V8.24902H86.834V6.62207C86.834 4.57338 88.0468 3.08905 90.4346 3.08887ZM108.746 9.29297C107.704 9.02202 106.185 9.06226 105.472 9.50195V19.502H103.81V8.75098C104.999 8.24887 106.198 7.9776 108.313 7.97754H109.156L108.746 9.29297ZM96.8057 9.12891C94.3422 9.12921 93.6289 11.6138 93.6289 13.9336C93.6291 16.2532 94.4003 18.6257 96.8057 18.626C99.2112 18.6259 99.9823 16.2489 99.9824 13.9336C99.9824 11.6181 99.2694 9.12899 96.8057 9.12891ZM134.632 13.4043C131.843 13.7021 129.976 14.2223 129.976 16.3955C129.976 17.9151 131.054 18.5643 132.747 18.5645C133.395 18.5769 134.038 18.4488 134.632 18.1904V13.4043ZM181.707 13.4043C178.914 13.7021 177.047 14.2223 177.047 16.3955C177.047 17.9151 178.13 18.5643 179.822 18.5645C180.47 18.5769 181.113 18.4488 181.707 18.1904V13.4043ZM219.203 13.4043C216.41 13.7021 214.543 14.2223 214.543 16.3955C214.543 17.9151 215.622 18.5643 217.314 18.5645C217.964 18.5788 218.608 18.4506 219.203 18.1904V13.4043ZM36.2598 6.06738C33.4881 6.26152 32.4923 9.40867 32.4922 12.3018C32.4922 15.2881 33.4552 18.479 36.5332 18.4795C39.6118 18.4795 40.5429 15.2439 40.543 12.3018C40.5429 9.35965 39.5004 6.08008 36.5332 6.08008L36.2598 6.06738ZM156.329 9.6084C154.253 9.60873 153.634 11.7827 153.634 13.9736C153.634 16.1643 154.289 18.2526 156.329 18.2529C158.369 18.2529 159.024 16.1645 159.024 13.9736C159.024 11.7825 158.41 9.6084 156.329 9.6084ZM75.6553 9.04395C73.9042 9.13037 72.4573 10.5607 72.4746 13.6133L78.8857 12.7246C78.8857 10.1158 77.6341 9.02637 75.8252 9.02637L75.6553 9.04395ZM147.88 3.89258C148.23 3.89266 148.568 4.02294 148.828 4.25781C149.088 4.49287 149.251 4.81588 149.285 5.16406C149.263 5.51541 149.103 5.8442 148.839 6.07812C148.575 6.3118 148.229 6.43253 147.877 6.41309C147.526 6.4311 147.181 6.31074 146.918 6.07715C146.655 5.84334 146.495 5.51455 146.474 5.16406C146.508 4.81602 146.671 4.49285 146.931 4.25781C147.19 4.02279 147.529 3.89269 147.88 3.89258ZM232.42 3.89258C232.771 3.89258 233.109 4.02277 233.369 4.25781C233.629 4.49285 233.791 4.81597 233.825 5.16406C233.803 5.51534 233.643 5.84421 233.38 6.07812C233.116 6.31185 232.77 6.43246 232.418 6.41309C232.067 6.43119 231.722 6.31063 231.459 6.07715C231.196 5.84334 231.037 5.51455 231.015 5.16406C231.049 4.81614 231.211 4.49282 231.471 4.25781C231.73 4.02279 232.069 3.8927 232.42 3.89258ZM253.854 3.89258C254.205 3.89258 254.544 4.02277 254.804 4.25781C255.063 4.49287 255.227 4.8159 255.261 5.16406C255.239 5.51537 255.078 5.8442 254.814 6.07812C254.551 6.31189 254.205 6.43251 253.853 6.41309C253.501 6.43119 253.156 6.31068 252.894 6.07715C252.631 5.84334 252.471 5.51455 252.449 5.16406C252.483 4.81617 252.646 4.49282 252.905 4.25781C253.165 4.02283 253.504 3.89274 253.854 3.89258ZM59.1914 4.13477C59.456 4.13482 59.7112 4.23563 59.9043 4.41602C60.0972 4.59645 60.2141 4.84322 60.2314 5.10645C60.2303 5.23945 60.2025 5.3717 60.1504 5.49414C60.0983 5.61626 60.0226 5.72727 59.9277 5.82031C59.8328 5.91332 59.7201 5.98732 59.5967 6.03711C59.4732 6.0868 59.3402 6.11247 59.207 6.11133L59.0889 6.09473C58.9898 6.08711 58.8918 6.06529 58.7988 6.0293C58.6746 5.98108 58.5602 5.90836 58.4639 5.81641C58.3677 5.7245 58.29 5.61474 58.2363 5.49316C58.1826 5.37138 58.1543 5.23946 58.1514 5.10645C58.1687 4.84328 58.2857 4.59644 58.4785 4.41602C58.6716 4.2356 58.9269 4.13488 59.1914 4.13477Z" fill="#222222"/>
<path d="M0 14.0443C0.356429 13.2932 0.619295 12.711 1.03364 11.9999C0.600063 11.0556 0.254071 10.0737 0 9.06656L0 14.0443ZM2.22768 0C2.22768 0 0 0 0 2.77774V3.22218C0.273265 5.77844 0.903099 8.28409 1.87125 10.6665C2.99677 8.849 4.41473 7.22881 6.0682 5.87104C9.66367 2.75997 13.8829 0.946655 20.4501 0H2.22768Z" fill="#222222"/>
</g>
<defs>
<clipPath id="clip0_8155_2668">
<rect width="274" height="24" fill="white"/>
</clipPath>
</defs>
</svg>
