<svg width="175" height="36" viewBox="0 0 175 36" fill="none" xmlns="http://www.w3.org/2000/svg">
<path d="M91.8547 22.7453C93.1449 22.7453 94.296 23.0245 94.8655 23.3732V31.7882C94.8771 34.0431 93.2957 35.2863 90.9944 35.2863C89.8905 35.3095 88.7865 35.101 87.7639 34.6828L88.2512 33.4972C89.0416 33.8227 89.8793 33.9962 90.7278 33.9962C92.3545 33.9961 93.0401 33.1598 93.0403 31.963V31.3927C92.4359 31.6484 91.7849 31.7762 91.134 31.7414C88.8793 31.7413 87.3684 30.0908 87.3684 27.4757C87.3686 24.6865 88.8911 22.7453 91.8547 22.7453ZM51.4309 22.7228C52.2908 22.6996 53.1276 22.9199 53.8713 23.3498L53.3831 24.4308C52.9183 24.1172 52.3723 23.9425 51.803 23.9308C50.8383 23.9308 50.2571 24.5008 50.2571 25.1632C50.2571 27.0926 54.1272 26.2446 54.1272 29.1154C54.1154 30.5215 52.8021 31.835 50.7336 31.8351C49.8271 31.8467 48.9203 31.6372 48.1184 31.2072L48.6067 30.0216C49.1761 30.3586 49.8272 30.545 50.5012 30.5334C51.4425 30.5332 52.1975 29.9285 52.1975 29.1847C52.1975 27.1276 48.4084 28.092 48.4084 25.2677C48.4085 23.9893 49.5597 22.7228 51.4309 22.7228ZM64.5061 22.7345C66.4238 22.7345 67.9005 23.5244 67.9006 25.7326V31.2072C67.1685 31.5791 66.0059 31.8351 64.5764 31.8351C62.031 31.8351 60.845 30.8234 60.845 29.173C60.8451 26.8486 63.2743 26.2207 66.1799 25.965V25.465C66.1797 24.2799 65.3663 23.9201 64.1809 23.9201C63.379 23.9317 62.577 24.0937 61.8333 24.4191L61.4036 23.3615C62.3913 22.9549 63.4487 22.7462 64.5061 22.7345ZM76.9426 31.2189C76.222 31.5792 75.176 31.8351 73.7581 31.8351C70.9686 31.8351 69.4348 30.2191 69.4348 27.4064C69.4348 24.5937 71.1317 22.8039 73.5608 22.8039C74.0721 22.8039 74.5953 22.8625 75.095 22.9787V19.0265H76.9426V31.2189ZM82.429 22.7345C84.823 22.7347 86.1594 24.2568 86.1594 27.1623L80.2434 27.9416C80.4179 29.6614 81.371 30.5333 82.9631 30.5334C83.8 30.545 84.6373 30.382 85.3928 30.0334L85.8342 31.2072C84.8813 31.6488 83.8469 31.8583 82.7893 31.8351C80.1509 31.8351 78.4534 30.2305 78.4534 27.255C78.4535 24.396 80.0348 22.7345 82.429 22.7345ZM100.014 22.7345C101.932 22.7345 103.407 23.5244 103.407 25.7326V31.2072C102.675 31.579 101.513 31.8351 100.083 31.8351C97.5381 31.835 96.3528 30.8234 96.3528 29.173C96.3529 26.8486 98.7821 26.2207 101.688 25.965V25.465C101.688 24.2799 100.874 23.9201 99.6887 23.9201C98.8869 23.9317 98.0848 24.0938 97.3411 24.4191L96.9104 23.3615C97.8983 22.9547 98.9562 22.7462 100.014 22.7345ZM107.104 28.9406C107.104 29.8587 107.673 30.5558 108.87 30.5558C109.417 30.5791 109.952 30.4867 110.451 30.2775V22.9552H112.299V31.2072C111.613 31.5442 110.358 31.8351 108.778 31.8351C106.325 31.8351 105.244 30.7074 105.244 28.8478V22.9552H107.104V28.9406ZM123.643 20.34C125.107 20.34 126.014 20.6192 126.642 20.9679L126.165 22.1418C125.793 21.9325 124.898 21.7228 123.887 21.7228C121.772 21.7229 120.214 23.0364 120.214 26.1046C120.214 28.9987 121.656 30.4982 123.457 30.4982C123.98 30.5214 124.492 30.4399 124.98 30.2423V26.4767H123.05V25.3263H126.863V31.2189C126.165 31.5908 125.049 31.8351 123.562 31.8351C120.377 31.8351 118.227 29.8009 118.227 26.0236C118.227 22.4439 120.563 20.3401 123.643 20.34ZM149.318 22.7345C151.235 22.7345 152.711 23.5244 152.711 25.7326V31.2072C151.967 31.579 150.794 31.8351 149.365 31.8351C146.819 31.8351 145.633 30.8234 145.633 29.173C145.633 26.8486 148.074 26.2207 150.968 25.965V25.465C150.968 24.2799 150.154 23.9201 148.992 23.9201C148.179 23.9317 147.389 24.0938 146.645 24.4191L146.214 23.3615C147.202 22.9547 148.26 22.7462 149.318 22.7345ZM161.742 31.2189C161.022 31.5792 159.976 31.8351 158.558 31.8351C155.768 31.8351 154.235 30.2191 154.235 27.4064C154.235 24.5937 155.931 22.8039 158.361 22.8039C158.872 22.8039 159.395 22.8625 159.895 22.9787V19.0265H161.742V31.2189ZM167.205 22.7345C169.844 22.7346 171.156 24.71 171.156 27.2902C171.156 29.8704 169.855 31.835 167.205 31.8351C164.567 31.8351 163.253 29.8704 163.253 27.2902C163.253 24.71 164.567 22.7345 167.205 22.7345ZM58.1487 22.9669H59.8459V24.0939H58.1487V29.3937C58.1022 29.9979 58.5553 30.5328 59.1594 30.6027H59.3225C59.4969 30.6027 59.6598 30.5681 59.8225 30.5216V31.6486C59.5087 31.7532 59.1596 31.8116 58.8225 31.8C57.0097 31.7998 56.3129 30.6261 56.3127 29.464V24.0939H55.092V22.9669H56.301V21.0255L58.1487 20.5138V22.9669ZM43.2834 25.2677H43.3069L45.7239 20.5607H47.5833L44.2014 26.8019V31.6027H42.2717V26.8019L38.8782 20.5607H40.9465L43.2834 25.2677ZM131.686 28.7316C131.779 29.1268 131.848 29.522 131.895 29.9171H131.918C131.965 29.5104 132.058 29.1151 132.174 28.7316L133.906 22.9552H135.533L137.196 28.7316C137.3 29.1267 137.381 29.522 137.428 29.9171H137.462C137.497 29.5104 137.568 29.1151 137.672 28.7316L139.24 22.9552H140.938L138.253 31.6027H136.544L134.847 25.9533C134.742 25.5815 134.673 25.2097 134.626 24.8263H134.604C134.557 25.2098 134.487 25.5814 134.382 25.9533L132.627 31.6027H130.919L128.257 22.9552H130.163L131.686 28.7316ZM144.111 31.6027H142.251V19.0031H144.111V31.6027ZM174.609 31.6027H172.749V19.0031H174.609V31.6027ZM66.1565 26.8253C64.0181 27.0462 62.5881 27.4534 62.5881 29.1154C62.5883 30.289 63.4144 30.7882 64.7161 30.7882C65.2156 30.7998 65.7034 30.7073 66.1565 30.5099V26.8253ZM101.676 26.8253C99.5374 27.0462 98.1077 27.4533 98.1077 29.1154C98.1078 30.289 98.9331 30.7882 100.235 30.7882C100.734 30.7999 101.223 30.7075 101.688 30.5099V26.8253H101.676ZM150.956 26.8253C148.818 27.0462 147.388 27.4534 147.388 29.1154C147.388 30.2889 148.214 30.7881 149.515 30.7882C150.015 30.7999 150.503 30.7074 150.956 30.5099V26.8253ZM91.7854 23.8146C90.0885 23.8146 89.2747 25.1748 89.2747 27.383C89.2747 29.5214 90.0996 30.6718 91.6917 30.672C92.1566 30.6837 92.622 30.5913 93.052 30.3937V24.0939C92.6569 23.8964 92.2269 23.8031 91.7854 23.8146ZM73.9788 23.838C72.0727 23.8381 71.3176 25.4422 71.3176 27.2902C71.3176 29.3937 72.061 30.6376 73.8157 30.6378C74.2573 30.6378 74.6881 30.5445 75.0833 30.3586V23.966C74.7229 23.873 74.3507 23.838 73.9788 23.838ZM158.779 23.838C156.873 23.8381 156.117 25.4422 156.117 27.2902C156.117 29.3937 156.861 30.6376 158.615 30.6378C159.057 30.6378 159.488 30.5445 159.883 30.3586V23.966C159.523 23.873 159.15 23.838 158.779 23.838ZM167.205 23.9201C165.613 23.9201 165.136 25.5932 165.136 27.2785C165.136 28.9638 165.636 30.5675 167.205 30.5675C168.774 30.5674 169.274 28.9637 169.274 27.2785C169.274 25.5933 168.797 23.9202 167.205 23.9201ZM82.3586 23.8498C81.092 23.8499 80.0808 24.8611 80.1272 27.0109L84.3811 26.4181C84.381 24.6401 83.5789 23.8498 82.3586 23.8498ZM63.2161 11.8087C63.3439 12.1923 63.4374 12.5874 63.5188 12.9826H63.5413C63.5413 12.9826 63.6698 12.3899 63.8674 11.8087L66.0061 5.43961H67.1917L62.7981 17.5392H61.3918L62.9377 14.0871L59.7522 5.43961H61.136L63.2161 11.8087ZM43.0627 2.84781C43.9343 2.82464 44.8056 3.03391 45.5725 3.44058L45.2122 4.31168C44.6079 3.96317 43.9219 3.78922 43.2131 3.78922C41.8419 3.78935 40.9584 4.63744 40.9583 5.85757C40.9583 8.50757 45.9211 7.33419 45.9211 11.007C45.8978 12.9246 44.3407 14.3078 42.179 14.3078C41.2027 14.3426 40.238 14.1334 39.3547 13.715L39.7502 12.7502C40.4359 13.0987 41.1912 13.2736 41.9465 13.2736C43.4226 13.2736 44.5149 12.3781 44.5149 11.0763C44.5147 8.31044 39.5993 9.46075 39.5989 5.95132C39.5989 4.30089 40.9242 2.84781 43.0627 2.84781ZM75.0481 13.715C74.1532 14.1334 73.1649 14.3426 72.177 14.3078C69.4459 14.3076 68.0745 12.6106 68.0745 9.92593C68.0745 7.032 69.7248 5.30012 72.177 5.29996C72.7233 5.29996 73.2586 5.35775 73.7932 5.49722V1.49918H75.0481V13.715ZM83.6838 13.715C82.7889 14.1334 81.8124 14.3426 80.8245 14.3078C78.0933 14.3077 76.722 12.6106 76.7219 9.92593C76.7219 7.03197 78.3722 5.30008 80.8245 5.29996C81.3707 5.29996 81.9059 5.35775 82.429 5.49722V1.49918H83.6838V13.715ZM93.5745 5.24234C95.3295 5.24234 96.7825 5.95112 96.7825 8.05484V13.715C95.8062 14.1333 94.76 14.3426 93.7024 14.3078C91.2967 14.3077 90.2161 13.296 90.2161 11.7619C90.2163 9.40285 92.6566 8.74014 95.5852 8.47281V7.92691C95.5852 6.53218 94.6439 6.10172 93.3538 6.10172C92.5751 6.11337 91.8195 6.27632 91.1106 6.60172L90.7854 5.83414C91.6686 5.45069 92.61 5.2424 93.5745 5.24234ZM49.9202 11.8087C50.0131 12.169 50.0944 12.5414 50.1409 12.9132H50.175C50.2215 12.5414 50.3029 12.169 50.4075 11.8087L52.384 5.45132H53.5696L55.4758 11.8087C55.5804 12.169 55.661 12.5414 55.7307 12.9132C55.7888 12.5413 55.8594 12.1691 55.9524 11.8087L57.7649 5.45132H58.9622L56.2307 14.0988H55.092L53.1272 7.72867C53.0227 7.39178 52.9412 7.04288 52.8948 6.68277H52.8723C52.8258 7.03126 52.7561 7.39177 52.6516 7.72867L50.6409 14.0988H49.5129L46.7932 5.45132H48.1301L49.9202 11.8087ZM89.5422 1.48746V2.28922H89.3909C88.5192 2.28922 87.7405 2.85946 87.7405 4.03336V5.43961H89.5422V6.20621H87.7288V14.0871H86.4729V6.20621H85.1946V5.43961H86.4846V4.19547C86.4848 2.61497 87.4149 1.47577 89.2395 1.47574C89.3674 1.47574 89.5422 1.48746 89.5422 1.48746ZM95.5745 9.13589C93.0756 9.41484 91.4475 9.85633 91.4475 11.716C91.4476 12.9943 92.3894 13.5402 93.842 13.5402C94.4463 13.5518 95.039 13.4356 95.5852 13.1916V9.13589H95.5745ZM72.4446 6.05582C70.1898 6.05586 69.3645 7.91524 69.3645 9.80972C69.3645 12.0064 70.2135 13.4591 72.259 13.4591C72.7936 13.4823 73.3168 13.3663 73.7932 13.1222V6.19449C73.3515 6.08988 72.8979 6.04419 72.4446 6.05582ZM81.092 6.05582C78.8372 6.05582 78.0002 7.91521 78.0002 9.80972C78.0003 12.0064 78.8492 13.4591 80.8948 13.4591C81.4293 13.4823 81.9525 13.3663 82.429 13.1222V6.19449C81.9873 6.08988 81.5337 6.04419 81.092 6.05582Z" fill="#003C57"/>
<path d="M0 19.41C0.488156 18.3988 0.987935 17.4225 1.54583 16.4695C0.906576 14.9353 0.395174 13.3429 0 11.7274C0 14.3774 0 17.2017 0 19.41ZM2.99867 0C2.99867 0 0.011623 5.54217e-07 0.011623 3.70766V5.68353C0.267324 9.01927 0.999557 12.3085 2.18508 15.4467C3.85876 12.7734 5.92761 10.3675 8.31028 8.29866C13.157 4.14933 19.6774 1.26688 28.5339 0H2.99867Z" fill="#A8BD3A"/>
<path d="M31.858 2.02236C21.7346 2.98705 14.819 5.88112 9.86773 10.1234C7.25261 12.3899 5.05591 15.098 3.3706 18.1199C7.25261 25.6747 14.6679 31.2188 27.0229 32.0207H28.2317C28.2317 32.0207 32.0324 32.1486 32.0324 27.9179V1.98749C31.9626 2.01073 31.9161 2.02236 31.858 2.02236ZM5.83463 23.5245C4.68398 22.1646 3.6728 20.6885 2.82433 19.1195C1.72017 21.2464 0.778726 23.4547 0 25.7212V32.0207H20.2469C13.9241 30.5214 9.19361 27.4762 5.83463 23.5245Z" fill="#003C57"/>
</svg>
