<svg width="280" height="24" viewBox="0 0 280 24" fill="none" xmlns="http://www.w3.org/2000/svg">
<path d="M33.9148 19.6334C32.6841 19.6763 31.4677 19.4187 30.3516 18.8893L30.8524 17.6586C31.711 18.1022 32.6555 18.3169 33.6143 18.3169C35.4746 18.3169 36.8483 17.1864 36.8483 15.555C36.8483 12.0777 30.6664 13.5087 30.6664 9.1155C30.6664 7.04054 32.3407 5.19455 35.0309 5.19455C36.1328 5.16593 37.2204 5.42351 38.1935 5.93867L37.7355 7.02624C36.9771 6.58262 36.1042 6.35366 35.2313 6.35366C33.4998 6.35366 32.3693 7.42691 32.3693 8.95809C32.3693 12.2923 38.6085 10.8184 38.6085 15.4405C38.5798 17.9019 36.6194 19.6334 33.9148 19.6334Z" fill="#222222"/>
<path d="M51.5733 19.3615H50.1423L47.6953 11.3479C47.5665 10.9186 47.4664 10.4749 47.3948 10.0313H47.3662C47.309 10.4749 47.2088 10.9186 47.08 11.3479L44.5042 19.3615H43.0732L39.6531 8.47154H41.3417L43.5883 16.4565C43.7171 16.9145 43.803 17.3724 43.8745 17.8446H43.9175C43.9747 17.3724 44.0749 16.9145 44.218 16.4565L46.6936 8.45723H48.1962L50.5716 16.4565C50.7004 16.9145 50.8149 17.3724 50.8865 17.8446H50.9294C51.0009 17.3724 51.0868 16.9145 51.2013 16.4565L53.4909 8.45723H54.9934L51.5733 19.3615Z" fill="#222222"/>
<path d="M59.8445 23.7117H58.0844L60.0162 19.3615L55.9951 8.47154H57.7409L60.3597 16.4852C60.5171 16.9717 60.6316 17.4582 60.7317 17.9591H60.7747C60.7747 17.9591 60.9464 17.215 61.1897 16.4852L63.88 8.47154H65.3682L59.8445 23.7117Z" fill="#222222"/>
<path d="M71.6503 19.6334C68.2159 19.6334 66.4844 17.4869 66.4844 14.124C66.4844 10.4893 68.5593 8.29983 71.6503 8.29983C72.3372 8.29983 73.0241 8.37138 73.6966 8.5431V3.52027H75.2707V18.8893C74.1402 19.4187 72.8953 19.6763 71.6503 19.6334ZM73.6966 9.43032C73.1385 9.30153 72.5805 9.24429 72.0081 9.24429C69.146 9.24429 68.13 11.5911 68.13 13.9666C68.13 16.7284 69.189 18.5458 71.7648 18.5458C72.4373 18.5744 73.0956 18.4313 73.6966 18.1308V9.43032Z" fill="#222222"/>
<path d="M82.526 19.6334C79.0916 19.6334 77.3601 17.4869 77.3601 14.124C77.3601 10.4893 79.4351 8.29983 82.526 8.29983C83.2129 8.29983 83.8998 8.37138 84.5724 8.5431V3.52027H86.1322V18.8893C85.0017 19.4187 83.771 19.6763 82.526 19.6334ZM84.5581 9.43032C84 9.30153 83.4419 9.24429 82.8695 9.24429C80.0075 9.24429 78.9915 11.5911 78.9915 13.9666C78.9915 16.7284 80.0504 18.5458 82.6405 18.5458C83.3131 18.5744 83.9714 18.4313 84.5724 18.1308V9.43032H84.5581Z" fill="#222222"/>
<path d="M91.2266 9.44462V19.3615H89.6382V9.44462H88.0068V8.47154H89.6382V6.89744C89.6382 4.92265 90.8116 3.47733 93.1155 3.47733C93.2872 3.47733 93.4876 3.49164 93.4876 3.49164V4.50766H93.3015C92.1997 4.50766 91.2266 5.20885 91.2266 6.7114V8.47154H93.4876V9.44462H91.2266Z" fill="#222222"/>
<path d="M98.7251 19.6334C95.6913 19.6334 94.3462 18.3598 94.3462 16.4279C94.3462 13.4514 97.4086 12.6358 101.086 12.2923V11.6341C101.086 9.87393 99.8985 9.33015 98.2815 9.33015C97.3084 9.34446 96.3496 9.55911 95.4624 9.95979L95.0474 8.98671C96.1493 8.50017 97.3513 8.24258 98.5533 8.24258C100.771 8.24258 102.589 9.12981 102.589 11.7772V18.9036C101.387 19.4187 100.056 19.6763 98.7251 19.6334ZM101.101 13.1223C97.9666 13.4801 95.906 14.0382 95.906 16.385C95.906 18.0163 97.0937 18.6889 98.9111 18.6889C99.6695 18.7032 100.414 18.5601 101.101 18.2453V13.1223Z" fill="#222222"/>
<path d="M115.797 13.337V19.3758H113.35V13.337L109.1 5.48075H111.704L114.681 11.4051H114.723L117.771 5.48075H120.118L115.797 13.337Z" fill="#222222"/>
<path d="M124.011 19.662C122.866 19.6763 121.735 19.4044 120.719 18.875L121.335 17.3724C122.05 17.8017 122.88 18.0307 123.71 18.0163C124.898 18.0163 125.842 17.2436 125.842 16.3135C125.842 13.7233 121.063 14.9397 121.063 11.3908C121.063 9.75945 122.508 8.19965 124.869 8.19965C125.943 8.17103 127.002 8.44292 127.932 8.98671L127.302 10.3319C126.715 9.93117 126.029 9.71652 125.313 9.70221C124.082 9.70221 123.367 10.432 123.367 11.262C123.367 13.6804 128.232 12.6215 128.232 16.2562C128.275 18.002 126.615 19.662 124.011 19.662Z" fill="#222222"/>
<path d="M134.185 19.6191C131.896 19.6191 131.023 18.1451 131.023 16.6712V9.90255H129.491V8.48586H131.023V6.03884L133.341 5.39489V8.48586H135.473V9.90255H133.355V16.5567C133.284 17.3295 133.856 18.002 134.629 18.0736C134.7 18.0736 134.772 18.0736 134.829 18.0736C135.044 18.0736 135.258 18.0307 135.459 17.9734V19.4044C135.072 19.5618 134.629 19.6334 134.185 19.6191Z" fill="#222222"/>
<path d="M141.426 19.662C138.235 19.662 136.732 18.3884 136.732 16.3135C136.732 13.3799 139.795 12.5928 143.444 12.278V11.6484C143.444 10.1601 142.414 9.71652 140.94 9.71652C139.924 9.73083 138.922 9.94548 137.992 10.3462L137.448 9.01533C138.693 8.50017 140.024 8.22828 141.369 8.22828C143.787 8.22828 145.633 9.21567 145.633 12.0061V18.8893C144.302 19.4474 142.871 19.7049 141.426 19.662ZM143.444 13.3656C140.754 13.6518 138.95 14.1526 138.95 16.2562C138.95 17.7301 139.995 18.3598 141.626 18.3598C142.256 18.3741 142.871 18.2453 143.444 18.002V13.3656Z" fill="#222222"/>
<path d="M152.989 19.662C149.483 19.662 147.551 17.6157 147.551 14.0811C147.551 10.5465 149.669 8.29983 152.731 8.29983C153.389 8.29983 154.033 8.37138 154.663 8.52879V3.52027H156.981V18.875C155.736 19.4474 154.362 19.7192 152.989 19.662ZM154.663 9.75945C154.205 9.64497 153.733 9.58773 153.275 9.60204C150.885 9.60204 149.941 11.6198 149.941 13.9523C149.941 16.5997 150.871 18.1738 153.074 18.1738C153.633 18.1881 154.176 18.0593 154.677 17.8303V9.75945H154.663Z" fill="#222222"/>
<path d="M161.16 14.768C161.374 16.9288 162.576 18.0307 164.58 18.0307C165.639 18.045 166.683 17.8303 167.642 17.401L168.2 18.875C166.998 19.4187 165.696 19.6906 164.38 19.662C161.045 19.662 158.913 17.6443 158.913 13.9094C158.913 10.3175 160.902 8.19966 163.907 8.19966C166.912 8.19966 168.601 10.1172 168.601 13.7663L161.16 14.768ZM163.807 9.61635C162.204 9.61635 160.945 10.8899 161.002 13.5945L166.354 12.8504C166.354 10.6181 165.353 9.61635 163.807 9.61635Z" fill="#222222"/>
<path d="M174.683 23.9979C173.28 24.0266 171.892 23.7547 170.604 23.2252L171.22 21.737C172.207 22.152 173.266 22.3666 174.339 22.3666C176.385 22.3666 177.258 21.322 177.258 19.8051V19.0896C176.5 19.4187 175.684 19.5761 174.854 19.5332C171.992 19.5332 170.118 17.4583 170.118 14.1669C170.118 10.6467 172.035 8.21397 175.77 8.21397C177.402 8.21397 178.833 8.57172 179.562 9.00102V19.5761C179.577 22.4525 177.588 23.9979 174.683 23.9979ZM177.273 9.94548C176.772 9.70221 176.228 9.58773 175.67 9.60204C173.552 9.60204 172.507 11.3192 172.507 14.0954C172.507 16.7857 173.552 18.231 175.555 18.231C176.142 18.2453 176.729 18.1165 177.258 17.8733V9.94548H177.273Z" fill="#222222"/>
<path d="M186.116 19.662C182.925 19.662 181.408 18.3884 181.408 16.3135C181.408 13.3799 184.471 12.5928 188.12 12.278V11.6484C188.12 10.1601 187.09 9.71652 185.616 9.71652C184.6 9.73083 183.598 9.94548 182.668 10.3462L182.124 9.01533C183.369 8.50017 184.7 8.22828 186.045 8.22828C188.463 8.22828 190.324 9.21567 190.324 12.0061V18.8893C188.993 19.4474 187.562 19.7049 186.116 19.662ZM188.106 13.3656C185.415 13.6518 183.612 14.1526 183.612 16.2562C183.612 17.7301 184.657 18.3598 186.288 18.3598C186.918 18.3741 187.533 18.2453 188.106 18.002V13.3656Z" fill="#222222"/>
<path d="M197.078 19.662C193.987 19.662 192.642 18.231 192.642 15.8985V8.48586H194.96V16.0273C194.96 17.1721 195.69 18.0736 197.192 18.0736C197.879 18.1022 198.552 17.9734 199.182 17.7158V8.50017H201.5V18.875C200.097 19.4474 198.595 19.7193 197.078 19.662Z" fill="#222222"/>
<path d="M215.667 19.662C211.66 19.662 208.955 17.1005 208.955 12.3496C208.955 7.8419 211.889 5.19455 215.781 5.19455C217.613 5.19455 218.772 5.5523 219.545 5.9816L218.958 7.45553C218.057 7.08347 217.083 6.89744 216.096 6.94037C213.434 6.94037 211.488 8.60034 211.488 12.4497C211.488 16.0845 213.306 17.9877 215.567 17.9877C216.225 18.0163 216.869 17.9019 217.484 17.6586V12.9077H215.037V11.4623H219.831V18.875C218.944 19.3615 217.541 19.662 215.667 19.662Z" fill="#222222"/>
<path d="M234.155 19.3758H231.994L229.862 12.2637C229.733 11.8058 229.633 11.3336 229.59 10.847H229.547C229.49 11.3193 229.404 11.8058 229.276 12.2637L227.057 19.3758H224.897L221.548 8.48586H223.952L225.87 15.7554C225.999 16.2419 226.084 16.7428 226.127 17.2579H226.17C226.227 16.7571 226.342 16.2562 226.485 15.7554L228.66 8.48586H230.707L232.81 15.7554C232.939 16.2419 233.039 16.7428 233.111 17.2579H233.154C233.196 16.7571 233.282 16.2562 233.411 15.7554L235.386 8.48586H237.518L234.155 19.3758Z" fill="#222222"/>
<path d="M239.178 19.3758V3.52027H241.496V19.3758H239.178Z" fill="#222222"/>
<path d="M248.136 19.662C244.945 19.662 243.443 18.3884 243.443 16.3135C243.443 13.3799 246.505 12.5928 250.154 12.278V11.6484C250.154 10.1601 249.124 9.71652 247.65 9.71652C246.634 9.73083 245.632 9.95979 244.702 10.3605L244.158 9.02964C245.403 8.51448 246.734 8.24258 248.079 8.24258C250.497 8.24258 252.343 9.22998 252.343 12.0204V18.8893C251.013 19.4474 249.582 19.7049 248.136 19.662ZM250.154 13.3656C247.464 13.6518 245.661 14.1526 245.661 16.2562C245.661 17.7301 246.705 18.3598 248.337 18.3598C248.966 18.3741 249.582 18.2453 250.154 18.002V13.3656Z" fill="#222222"/>
<path d="M259.699 19.662C256.193 19.662 254.261 17.6157 254.261 14.0811C254.261 10.5465 256.379 8.29983 259.441 8.29983C260.099 8.29983 260.743 8.37138 261.373 8.52879V3.52027H263.691V18.875C262.446 19.4474 261.072 19.7192 259.699 19.662ZM261.373 9.75945C260.915 9.64497 260.457 9.58773 259.985 9.60204C257.581 9.60204 256.636 11.6198 256.636 13.9523C256.636 16.5997 257.566 18.1738 259.77 18.1738C260.328 18.1881 260.872 18.0593 261.373 17.8303V9.75945Z" fill="#222222"/>
<path d="M270.589 19.662C267.269 19.662 265.609 17.215 265.609 13.9523C265.609 10.6896 267.24 8.21397 270.589 8.21397C273.937 8.21397 275.554 10.6896 275.554 13.9523C275.554 17.215 273.923 19.662 270.589 19.662ZM270.589 9.70221C268.585 9.70221 267.984 11.8058 267.984 13.9237C267.984 16.0416 268.614 18.0593 270.589 18.0593C272.563 18.0593 273.193 16.0416 273.193 13.9237C273.193 11.8058 272.606 9.70221 270.589 9.70221Z" fill="#222222"/>
<path d="M277.572 19.3758V3.52027H279.89V19.3758H277.572Z" fill="#222222"/>
<path d="M0.0143104 13.5373C0.357752 12.8218 0.615334 12.2494 1.01601 11.5625C0.586713 10.6467 0.257581 9.70221 0 8.72913L0.0143104 13.5373ZM2.16082 0C2.16082 0 0 1.19412e-06 0 2.67598V3.10528C0.271891 5.56661 0.887224 7.98501 1.81738 10.2746C2.91925 8.51448 4.29302 6.95468 5.89574 5.65247C9.38739 2.64736 13.4944 0.901533 19.891 0H2.16082Z" fill="#222222"/>
<path d="M23.0106 1.45963C15.6981 2.16082 10.7039 4.25009 7.1264 7.29813C5.36627 8.74344 3.87802 10.5036 2.77615 12.4927C5.58092 17.9448 11.2906 22.524 20.2058 23.0964H20.3775C20.3775 23.0964 23.125 23.1966 23.125 20.1342V1.44532C23.0964 1.44532 23.0535 1.45963 23.0106 1.45963ZM4.22147 16.986C3.39148 15.9986 2.66167 14.9397 2.04634 13.8092C1.24497 15.3404 0.572402 16.9431 0 18.5744V23.0821L13.4658 23.1107C9.20136 21.8085 6.63986 19.848 4.22147 16.986Z" fill="#222222"/>
</svg>
