<svg width="24" height="24" viewBox="0 0 24 24" fill="none" xmlns="http://www.w3.org/2000/svg">
<path d="M12 5C8.1 5 5 8.1 5 12C5 15.9 8.1 19 12 19C15.9 19 19 15.9 19 12C19 8.1 15.9 5 12 5ZM15.1 14C15.3 14.2 15.3 14.5 15.1 14.7L14.7 15.1C14.5 15.3 14.2 15.3 14 15.1L12 13.1L10 15.1C9.8 15.3 9.5 15.3 9.3 15.1L8.9 14.7C8.7 14.5 8.7 14.2 8.9 14L10.9 12L8.9 10C8.7 9.8 8.7 9.5 8.9 9.3L9.3 8.9C9.5 8.7 9.8 8.7 10 8.9L12 10.9L14 8.9C14.2 8.7 14.5 8.7 14.7 8.9L15.1 9.3C15.3 9.5 15.3 9.8 15.1 10L13.1 12L15.1 14Z" fill="#003C57"/>
</svg>
