<svg width="24" height="24" viewBox="0 0 24 24" fill="none" xmlns="http://www.w3.org/2000/svg">
<path d="M12 1.5C6.15 1.5 1.5 6.15 1.5 12C1.5 17.85 6.15 22.5 12 22.5C17.85 22.5 22.5 17.85 22.5 12C22.5 6.15 17.85 1.5 12 1.5ZM16.65 15C16.95 15.3 16.95 15.75 16.65 16.05L16.05 16.65C15.75 16.95 15.3 16.95 15 16.65L12 13.65L9 16.65C8.7 16.95 8.25 16.95 7.95 16.65L7.35 16.05C7.05 15.75 7.05 15.3 7.35 15L10.35 12L7.35 9C7.05 8.7 7.05 8.25 7.35 7.95L7.95 7.35C8.25 7.05 8.7 7.05 9 7.35L12 10.35L15 7.35C15.3 7.05 15.75 7.05 16.05 7.35L16.65 7.95C16.95 8.25 16.95 8.7 16.65 9L13.65 12L16.65 15Z" fill="#206095"/>
</svg>
