<svg width="24" height="24" viewBox="0 0 24 24" fill="none" xmlns="http://www.w3.org/2000/svg">
<path d="M10.5 5.99976C10.7799 5.99976 10.9999 6.21987 11 6.49976V6.99976C11 7.27976 10.78 7.49976 10.5 7.49976H7.5V16.4998H16.5V13.4998C16.5001 13.2199 16.7201 12.9998 17 12.9998H17.5C17.7799 12.9998 17.9999 13.2199 18 13.4998V17.4998C18 17.7798 17.78 17.9998 17.5 17.9998H6.5C6.22 17.9998 6 17.7798 6 17.4998V6.49976C6.00013 6.21987 6.22008 5.99976 6.5 5.99976H10.5ZM17.5 5.98999C17.77 5.99999 18 6.21999 18 6.48999V10.49C18 10.62 17.9396 10.7496 17.8496 10.8396C17.6496 11.0396 17.3299 11.0396 17.1299 10.8396L15.8496 9.5603L13.54 11.8796C13.34 12.0696 13.0301 12.0696 12.8301 11.8796L12.1201 11.1697C11.9302 10.9697 11.9302 10.6597 12.1201 10.4597L14.4297 8.12964L13.1504 6.85034C13.0605 6.76041 13.0098 6.64017 13.0098 6.52026C12.9998 6.24028 13.22 6.00001 13.5 5.98999H17.5Z" fill="#003C57"/>
</svg>
