<svg width="16" height="16" viewBox="0 0 16 16" fill="none" xmlns="http://www.w3.org/2000/svg">
<path d="M6.5 2C6.77992 2 6.99987 2.22012 7 2.5V3C7 3.28 6.78 3.5 6.5 3.5H3.5V12.5H12.5V9.5C12.5001 9.22012 12.7201 9 13 9H13.5C13.7799 9 13.9999 9.22012 14 9.5V13.5C14 13.78 13.78 14 13.5 14H2.5C2.22 14 2 13.78 2 13.5V2.5C2.00013 2.22012 2.22008 2 2.5 2H6.5ZM13.5 1.99023C13.77 2.00023 14 2.22023 14 2.49023V6.49023C14 6.62023 13.9396 6.74984 13.8496 6.83984C13.6496 7.03982 13.3299 7.03984 13.1299 6.83984L11.8496 5.56055L9.54004 7.87988C9.34004 8.06988 9.03008 8.06988 8.83008 7.87988L8.12012 7.16992C7.93024 6.96992 7.93016 6.65992 8.12012 6.45996L10.4297 4.12988L9.15039 2.85059C9.06046 2.76065 9.00984 2.64042 9.00977 2.52051C8.99977 2.24052 9.22002 2.00026 9.5 1.99023H13.5Z" fill="#222222"/>
</svg>
