<svg width="24" height="24" viewBox="0 0 24 24" fill="none" xmlns="http://www.w3.org/2000/svg">
<path d="M17.5 16C17.7761 16 18 16.2239 18 16.5V17.5C18 17.7761 17.7761 18 17.5 18H6.5C6.22386 18 6 17.7761 6 17.5V16.5C6 16.2239 6.22386 16 6.5 16H17.5ZM17.5 11C17.7761 11 18 11.2239 18 11.5V12.5C18 12.7761 17.7761 13 17.5 13H6.5C6.22386 13 6 12.7761 6 12.5V11.5C6 11.2239 6.22386 11 6.5 11H17.5ZM17.5 6C17.7761 6 18 6.22386 18 6.5V7.5C18 7.77614 17.7761 8 17.5 8H6.5C6.22386 8 6 7.77614 6 7.5V6.5C6 6.22386 6.22386 6 6.5 6H17.5Z" fill="#003C57"/>
</svg>
