<svg width="24" height="24" viewBox="0 0 24 24" fill="none" xmlns="http://www.w3.org/2000/svg">
<path d="M22.1952 19.545L16.9602 14.31C17.8006 12.885 18.1463 11.222 17.9434 9.58009C17.7404 7.93817 17.0003 6.40941 15.8382 5.23186C14.6761 4.05431 13.1573 3.29405 11.5182 3.06945C9.87909 2.84485 8.21172 3.16851 6.7757 3.99005C5.33968 4.81159 4.21559 6.0849 3.57846 7.61171C2.94134 9.13852 2.82693 10.8332 3.25305 12.4318C3.67917 14.0304 4.62191 15.4432 5.93447 16.4503C7.24704 17.4574 8.85577 18.0023 10.5102 18C11.8571 17.9907 13.1773 17.6231 14.3352 16.935L19.5702 22.17C19.6399 22.2403 19.7229 22.2961 19.8143 22.3342C19.9056 22.3722 20.0037 22.3919 20.1027 22.3919C20.2017 22.3919 20.2997 22.3722 20.3911 22.3342C20.4825 22.2961 20.5655 22.2403 20.6352 22.17L22.2252 20.58C22.3542 20.4367 22.423 20.2492 22.4174 20.0565C22.4119 19.8638 22.3323 19.6806 22.1952 19.545ZM14.1702 14.175C13.6774 14.6591 13.0936 15.0409 12.4526 15.2983C11.8116 15.5557 11.1259 15.6838 10.4352 15.675C9.73898 15.6912 9.04668 15.5666 8.39974 15.3089C7.7528 15.0512 7.16454 14.6655 6.67019 14.175C5.94156 13.4357 5.44774 12.4974 5.2508 11.4782C5.05387 10.459 5.16261 9.40437 5.56335 8.4468C5.96409 7.48922 6.63895 6.67148 7.5031 6.09635C8.36726 5.52122 9.38214 5.21437 10.4202 5.21437C11.4582 5.21437 12.4731 5.52122 13.3373 6.09635C14.2014 6.67148 14.8763 7.48922 15.277 8.4468C15.6778 9.40437 15.7865 10.459 15.5896 11.4782C15.3926 12.4974 14.8988 13.4357 14.1702 14.175Z" fill="currentColor"/>
</svg>
